<?xml version="1.0" encoding="utf-8"?>
<!-- Generator: Adobe Illustrator 16.0.0, SVG Export Plug-In . SVG Version: 6.00 Build 0)  -->
<!DOCTYPE svg PUBLIC "-//W3C//DTD SVG 1.1//EN" "http://www.w3.org/Graphics/SVG/1.1/DTD/svg11.dtd">
<svg version="1.1" id="Capa_1" xmlns="http://www.w3.org/2000/svg" xmlns:xlink="http://www.w3.org/1999/xlink" x="0px" y="0px"
	 width="640px" height="480px" viewBox="0 0 640 480" enable-background="new 0 0 640 480" xml:space="preserve">
<g>
	<g>
		<path fill="#DBC56E" d="M551.97,464.002h-31.996v-87.988c-0.025-22.077-17.917-39.968-39.994-39.995v-71.99
			c-0.026-22.077-17.917-39.968-39.995-39.995v-55.992c-0.026-22.077-17.917-39.968-39.995-39.995h-52.85
			c16.269-10.617,30.058-24.615,40.427-41.043c17.053-29.819,16.381-60.463-1.68-76.262C375.402,1.978,361.572-1.69,348.123,0.727
			c-10.893,1.845-20.82,7.373-28.124,15.661c-7.305-8.286-17.232-13.814-28.124-15.661c-13.449-2.41-27.276,1.257-37.763,10.015
			c-18.061,15.798-18.733,46.441-1.791,76.054c10.392,16.507,24.222,30.576,40.546,41.25H240.01
			c-22.077,0.026-39.968,17.917-39.995,39.995v55.992c-22.077,0.026-39.968,17.917-39.995,39.995v71.99
			c-22.077,0.026-39.968,17.917-39.995,39.995v87.988H88.03c-4.417,0-7.999,3.581-7.999,7.999s3.581,7.999,7.999,7.999h463.938
			c4.418,0,7.998-3.581,7.998-7.999S556.388,464.002,551.97,464.002z M266.319,79.061c-13.167-23.005-13.838-45.642-1.68-56.272
			c5.408-4.454,12.224-6.839,19.229-6.728c1.796,0.002,3.588,0.152,5.359,0.448c10.23,1.804,19.039,8.268,23.829,17.485
			c1.541,2.334,4.148,3.737,6.943,3.737c2.795,0,5.402-1.403,6.943-3.737c4.788-9.22,13.598-15.684,23.828-17.485
			c8.721-1.593,17.701,0.701,24.589,6.279c12.159,10.631,11.487,33.268-1.768,56.465c-7.647,14.318-27.053,31.483-53.593,47.474
			C293.483,110.754,274.07,93.572,266.319,79.061z M240.011,144.044H399.99c10.573,0.038,19.871,7.005,22.876,17.143
			c-9.997,2.998-18.742,9.177-24.908,17.597c-7.423,8.455-12.103,13.255-21.966,13.255s-14.574-4.8-21.988-13.271
			c-7.715-11.324-20.373-18.282-34.068-18.726c-13.676,0.454-26.314,7.411-34.012,18.726c-7.415,8.471-12.086,13.271-21.973,13.271
			c-9.887,0-14.542-4.8-21.941-13.262c-6.156-8.418-14.89-14.597-24.877-17.598C220.143,151.044,229.439,144.081,240.011,144.044z
			 M216.014,177.489c5.529,2.765,10.312,6.816,13.95,11.814c7.684,11.318,20.315,18.279,33.987,18.733
			c13.677-0.451,26.317-7.409,34.012-18.726c7.415-8.472,12.086-13.271,21.973-13.271s14.575,4.799,21.998,13.271
			c7.387,11.658,20.227,18.723,34.027,18.723s26.642-7.064,34.027-18.723c3.646-5.014,8.448-9.072,13.999-11.831v46.554H216.014
			V177.489z M176.019,264.029c0-13.253,10.743-23.997,23.997-23.997h239.968c13.252,0,23.996,10.744,23.996,23.997v0.472
			c-13.301,1.857-25.646,7.963-35.195,17.406c-8.55,9.013-20.428,14.117-32.852,14.117s-24.301-5.104-32.851-14.117
			c-11.44-11.447-26.959-17.879-43.143-17.879c-16.183,0-31.703,6.432-43.143,17.879c-8.542,9.013-20.414,14.117-32.832,14.117
			s-24.29-5.104-32.832-14.117c-9.527-9.43-21.843-15.533-35.115-17.406V264.029L176.019,264.029z M176.019,280.722
			c9.417,1.939,18.055,6.608,24.837,13.423c11.439,11.447,26.959,17.878,43.143,17.878s31.703-6.431,43.143-17.878
			c8.543-9.014,20.417-14.119,32.835-14.119c12.42,0,24.292,5.105,32.836,14.119c11.445,11.447,26.97,17.877,43.158,17.877
			s31.712-6.431,43.158-17.877c6.789-6.816,15.432-11.486,24.853-13.431v55.305H176.02L176.019,280.722L176.019,280.722z
			 M503.976,464.002H136.024v-71.63c12.965,1.309,25.293,6.265,35.556,14.294c15.023,11.525,33.5,17.637,52.433,17.341
			c18.926,0.295,37.395-5.817,52.409-17.341c12.362-9.804,27.757-14.986,43.53-14.654c15.783-0.333,31.189,4.85,43.563,14.654
			c31.143,23.117,73.748,23.117,104.891,0c10.268-8.031,22.602-12.987,35.571-14.294V464.002L503.976,464.002z M503.976,376.365
			c-16.132,1.306-31.553,7.201-44.441,16.99c-25.761,19.537-61.38,19.537-87.141,0c-15.024-11.528-33.505-17.639-52.441-17.342
			c-18.927-0.295-37.4,5.816-52.417,17.342c-12.359,9.802-27.751,14.983-43.522,14.653c-15.781,0.333-31.184-4.849-43.554-14.653
			c-12.887-9.787-28.305-15.683-44.435-16.99v-0.352c0-13.253,10.744-23.997,23.997-23.997h319.958
			c13.252,0,23.996,10.744,23.996,23.997L503.976,376.365L503.976,376.365z"/>
	</g>
</g>
</svg>
