<?xml version="1.0" encoding="utf-8"?>
<!-- Generator: Adobe Illustrator 16.0.0, SVG Export Plug-In . SVG Version: 6.00 Build 0)  -->
<!DOCTYPE svg PUBLIC "-//W3C//DTD SVG 1.1//EN" "http://www.w3.org/Graphics/SVG/1.1/DTD/svg11.dtd">
<svg version="1.1" id="Capa_1" xmlns="http://www.w3.org/2000/svg" xmlns:xlink="http://www.w3.org/1999/xlink" x="0px" y="0px"
	 width="640px" height="480px" viewBox="0 0 640 480" enable-background="new 0 0 640 480" xml:space="preserve">
<g>
	<path fill="#DBC56E" d="M489.797,70.178C414.801-4.819,302.16-19.675,212.166,25.471l-0.091-0.174l-7.271,3.975
		c-0.431,0.24-0.836,0.514-1.267,0.754c-4.256,2.359-8.455,4.844-12.587,7.478c-0.414,0.265-0.844,0.513-1.258,0.786
		c-4.488,2.898-8.894,5.954-13.216,9.184c-0.53,0.397-1.043,0.812-1.565,1.209c-3.569,2.707-7.072,5.539-10.517,8.479
		c-0.96,0.82-1.921,1.64-2.873,2.468c-3.851,3.387-7.643,6.873-11.32,10.55s-7.163,7.469-10.549,11.319
		c-0.836,0.952-1.648,1.913-2.468,2.873c-2.939,3.445-5.763,6.948-8.479,10.517c-0.397,0.53-0.82,1.035-1.217,1.565
		c-3.229,4.322-6.285,8.728-9.183,13.207c-0.273,0.423-0.53,0.854-0.795,1.275c-2.633,4.132-5.117,8.322-7.469,12.57
		c-0.24,0.431-0.514,0.836-0.753,1.267l-3.975,7.271l0.174,0.091c-45.146,90.002-30.282,202.65,44.715,277.64
		c46.81,46.81,108.31,70.219,169.801,70.219c37.015,0,74.012-8.546,107.83-25.513l0.091,0.174l7.271-3.975
		c0.422-0.231,0.819-0.505,1.242-0.736c4.265-2.36,8.479-4.853,12.619-7.503c0.414-0.265,0.828-0.513,1.242-0.778
		c4.488-2.897,8.894-5.953,13.216-9.183c0.538-0.397,1.052-0.82,1.582-1.226c3.568-2.708,7.063-5.54,10.508-8.471
		c0.961-0.82,1.921-1.632,2.873-2.468c3.851-3.387,7.644-6.865,11.32-10.541c3.676-3.677,7.154-7.47,10.541-11.32
		c0.836-0.952,1.647-1.912,2.467-2.873c2.94-3.444,5.764-6.947,8.479-10.517c0.397-0.529,0.82-1.035,1.218-1.564
		c3.229-4.323,6.285-8.736,9.183-13.216c0.266-0.414,0.521-0.845,0.787-1.259c2.633-4.132,5.117-8.33,7.478-12.587
		c0.24-0.431,0.513-0.836,0.753-1.267l3.975-7.271l-0.174-0.091C579.649,257.816,564.795,145.166,489.797,70.178z M319.996,16.503
		c57.252,0,114.504,21.795,158.093,65.384c69.681,69.681,83.601,174.272,41.875,257.973L410.76,280.165
		c16.089-36.451,9.314-80.637-20.504-110.455c-29.826-29.826-74.003-36.6-110.454-20.511L220.116,40.003
		C251.466,24.378,285.723,16.503,319.996,16.503z M503.726,367.284c-2.021,2.915-4.107,5.764-6.261,8.579
		c-0.662,0.869-1.324,1.73-2.004,2.592c-2.054,2.6-4.182,5.15-6.351,7.659c-0.721,0.837-1.416,1.681-2.153,2.509
		c-2.873,3.222-5.813,6.385-8.868,9.44s-6.219,6.003-9.44,8.868c-0.828,0.737-1.673,1.433-2.509,2.153
		c-2.509,2.169-5.051,4.297-7.659,6.351c-0.861,0.68-1.723,1.342-2.592,2.004c-2.815,2.153-5.673,4.24-8.579,6.261
		c-0.621,0.431-1.233,0.869-1.854,1.291c-3.603,2.443-7.271,4.803-11.021,7.039l-59.662-109.146
		c5.474-3.618,10.674-7.833,15.493-12.652s9.034-10.012,12.653-15.493l109.146,59.67c-2.235,3.742-4.596,7.411-7.03,11.013
		C504.603,366.042,504.164,366.663,503.726,367.284z M370.375,305.594c-0.539,0.414-1.094,0.804-1.64,1.201
		c-2.832,2.054-5.771,3.991-8.894,5.705c-0.115,0.066-0.224,0.133-0.34,0.199l-1.49,0.812
		c-31.168,16.089-70.492,11.104-96.576-14.988c-26.092-26.092-31.077-65.383-15.004-96.543l0.861-1.573
		c0.042-0.083,0.099-0.157,0.141-0.24c1.723-3.139,3.668-6.095,5.738-8.943c0.397-0.538,0.787-1.093,1.192-1.623
		c2.203-2.881,4.53-5.639,7.072-8.181c2.534-2.534,5.3-4.869,8.173-7.063c0.539-0.414,1.093-0.804,1.64-1.209
		c2.832-2.054,5.771-3.983,8.885-5.697c0.116-0.066,0.224-0.141,0.339-0.198l1.482-0.812c11.891-6.136,24.958-9.225,38.024-9.225
		c21.206,0,42.413,8.073,58.552,24.212c26.092,26.093,31.077,65.384,15.004,96.544l-0.861,1.573
		c-0.041,0.082-0.099,0.157-0.141,0.24c-1.722,3.138-3.668,6.094-5.738,8.942c-0.396,0.538-0.786,1.093-1.191,1.623
		c-2.203,2.882-4.53,5.64-7.072,8.181C376.014,301.065,373.256,303.4,370.375,305.594z M134.975,114.529
		c0.422-0.621,0.861-1.233,1.292-1.854c2.021-2.915,4.107-5.771,6.26-8.579c0.663-0.869,1.325-1.73,2.004-2.592
		c2.054-2.6,4.182-5.15,6.352-7.659c0.72-0.837,1.416-1.682,2.153-2.51c2.874-3.221,5.813-6.384,8.869-9.439
		c3.055-3.056,6.219-6.003,9.439-8.868c0.828-0.737,1.673-1.433,2.509-2.153c2.509-2.169,5.051-4.298,7.66-6.352
		c0.861-0.679,1.722-1.341,2.592-2.004c2.807-2.152,5.664-4.239,8.579-6.26c0.621-0.431,1.242-0.878,1.863-1.3
		c3.602-2.443,7.27-4.803,11.013-7.03l59.662,109.146c-5.473,3.618-10.673,7.833-15.493,12.652s-9.034,10.012-12.653,15.493
		l-109.138-59.678C130.172,121.799,132.532,118.131,134.975,114.529z M161.912,398.064
		c-69.689-69.682-83.601-174.273-41.883-257.973l109.204,59.694c-16.089,36.451-9.315,80.636,20.503,110.454
		c19.376,19.377,44.814,29.057,70.26,29.057c13.729,0,27.417-2.915,40.194-8.554l59.695,109.204
		C336.185,481.664,231.592,467.753,161.912,398.064z"/>
	<path fill="#DBC56E" d="M296.579,216.554c-6.26,6.251-9.705,14.573-9.705,23.417s3.445,17.166,9.705,23.418
		c6.251,6.26,14.574,9.704,23.417,9.704s17.166-3.444,23.417-9.704c6.261-6.252,9.705-14.574,9.705-23.418
		s-3.444-17.166-9.705-23.417C330.918,204.041,309.082,204.041,296.579,216.554z M331.705,251.688
		c-6.261,6.261-17.158,6.261-23.418,0c-3.13-3.13-4.853-7.286-4.853-11.708s1.723-8.579,4.853-11.709s7.287-4.853,11.709-4.853
		s8.578,1.723,11.709,4.853c3.129,3.13,4.852,7.287,4.852,11.709S334.834,248.558,331.705,251.688z"/>
</g>
</svg>
