<?xml version="1.0" encoding="utf-8"?>
<!-- Generator: Adobe Illustrator 16.0.0, SVG Export Plug-In . SVG Version: 6.00 Build 0)  -->
<!DOCTYPE svg PUBLIC "-//W3C//DTD SVG 1.1//EN" "http://www.w3.org/Graphics/SVG/1.1/DTD/svg11.dtd">
<svg version="1.1" id="Capa_1" xmlns="http://www.w3.org/2000/svg" xmlns:xlink="http://www.w3.org/1999/xlink" x="0px" y="0px"
	 width="640px" height="480px" viewBox="0 0 640 480" enable-background="new 0 0 640 480" xml:space="preserve">
<path fill="#DBC56E" d="M559.888,161.35c0.057-0.328,0.088-0.648,0.104-0.984c0.016-0.393,0.008-0.769-0.024-1.16
	c-0.032-0.336-0.08-0.656-0.16-0.984c-0.088-0.384-0.208-0.752-0.352-1.12c-0.072-0.192-0.088-0.393-0.176-0.576
	c-0.064-0.136-0.177-0.24-0.248-0.376c-0.072-0.137-0.104-0.28-0.185-0.416l-80.019-128.03c-0.368-0.584-0.8-1.112-1.288-1.576
	c-0.008-0.008-0.017-0.008-0.024-0.017c-0.688-0.647-1.504-1.112-2.376-1.479c-0.112-0.049-0.185-0.145-0.305-0.192
	c-0.088-0.032-0.184-0.016-0.271-0.04c-0.809-0.272-1.641-0.456-2.513-0.456H167.98c-0.864,0-1.688,0.184-2.48,0.448
	c-0.088,0.023-0.176,0.008-0.256,0.04c-0.12,0.04-0.192,0.136-0.304,0.184c-0.832,0.345-1.616,0.792-2.296,1.4
	c-0.04,0.04-0.096,0.064-0.136,0.096c-0.496,0.465-0.936,1.001-1.304,1.585L81.185,155.724c-0.08,0.129-0.112,0.28-0.184,0.417
	c-0.072,0.136-0.184,0.239-0.248,0.376c-0.088,0.184-0.104,0.384-0.184,0.576c-0.144,0.368-0.264,0.735-0.352,1.12
	c-0.072,0.328-0.128,0.656-0.16,0.992c-0.056,0.392-0.064,0.776-0.048,1.16c0.016,0.336,0.048,0.656,0.104,0.984
	c0.064,0.384,0.168,0.76,0.296,1.136c0.104,0.313,0.216,0.616,0.36,0.921c0.072,0.144,0.096,0.304,0.176,0.447
	c0.128,0.232,0.32,0.408,0.464,0.625c0.112,0.168,0.176,0.352,0.312,0.512l231.966,287.955c0.016,0.023,0.032,0.04,0.048,0.056
	l0.04,0.057c0.024,0.031,0.064,0.04,0.088,0.071c0.656,0.793,1.472,1.393,2.36,1.873c0.24,0.128,0.464,0.24,0.712,0.344
	c0.968,0.408,1.992,0.696,3.064,0.696c0.912,0,1.832-0.16,2.744-0.488c0.137-0.048,0.225-0.16,0.36-0.216
	c0.408-0.168,0.729-0.44,1.097-0.672c0.607-0.385,1.176-0.784,1.648-1.305c0.111-0.12,0.279-0.176,0.384-0.304L558.288,164.99
	c0.128-0.16,0.191-0.353,0.312-0.512c0.152-0.217,0.336-0.393,0.464-0.625c0.08-0.144,0.104-0.304,0.177-0.447
	c0.144-0.305,0.256-0.601,0.359-0.921C559.712,162.11,559.824,161.741,559.888,161.35z M336.82,39.953h123.7l-38.889,104.385
	L336.82,39.953z M407.213,151.98H232.796L320,44.651L407.213,151.98z M217.808,145.033l-38.401-105.08h123.781L217.808,145.033z
	 M412.822,167.984L318.6,420.89l-92.414-252.906H412.822z M473.86,49.98l63.75,102.008H435.859L473.86,49.98z M166.068,50.083
	l37.233,101.896H102.389L166.068,50.083z M209.15,167.984l86.732,237.366L104.67,167.984H209.15z M339.181,411.48l90.717-243.496
	H535.33L339.181,411.48z"/>
</svg>
