<?xml version="1.0" encoding="utf-8"?>
<!-- Generator: Adobe Illustrator 16.0.0, SVG Export Plug-In . SVG Version: 6.00 Build 0)  -->
<!DOCTYPE svg PUBLIC "-//W3C//DTD SVG 1.1//EN" "http://www.w3.org/Graphics/SVG/1.1/DTD/svg11.dtd">
<svg version="1.1" id="Capa_1" xmlns="http://www.w3.org/2000/svg" xmlns:xlink="http://www.w3.org/1999/xlink" x="0px" y="0px"
	 width="640px" height="480px" viewBox="0 0 640 480" enable-background="new 0 0 640 480" xml:space="preserve">
<g>
	<path fill="#DBC56E" d="M559.206,149.935c-7.007-77.118-61.591-133.069-129.902-133.069c-45.511,0-87.181,24.491-110.628,63.742
		c-23.235-39.759-63.197-63.751-107.979-63.751c-68.302,0-122.896,55.95-129.894,133.069c-0.554,3.406-2.825,21.333,4.08,50.568
		c9.951,42.169,32.938,80.524,66.456,110.896l167.225,151.754L488.66,311.4c33.52-30.381,56.505-68.728,66.456-110.905
		C562.021,171.269,559.751,153.341,559.206,149.935z M537.144,196.267c-9.084,38.513-30.141,73.601-60.835,101.405L318.675,438.311
		L163.747,297.709c-30.75-27.859-51.797-62.938-60.89-101.452c-6.536-27.666-3.85-43.295-3.84-43.396l0.138-0.933
		c6-67.564,52.905-116.61,111.542-116.61c43.267,0,81.355,26.587,99.43,69.374l8.502,20.151l8.502-20.151
		c17.789-42.132,57.89-69.364,102.182-69.364c58.628,0,105.541,49.046,111.662,117.486
		C540.993,152.962,543.679,168.601,537.144,196.267z"/>
	<path fill="#DBC56E" d="M227.691,72.964c-50.901,0-92.313,41.412-92.313,92.313c0,5.104,4.126,9.23,9.231,9.23
		s9.231-4.126,9.231-9.23c0-40.72,33.131-73.851,73.85-73.851c5.105,0,9.231-4.127,9.231-9.231
		C236.923,77.09,232.787,72.964,227.691,72.964z"/>
</g>
</svg>
