<?xml version="1.0" encoding="utf-8"?>
<!-- Generator: Adobe Illustrator 16.0.0, SVG Export Plug-In . SVG Version: 6.00 Build 0)  -->
<!DOCTYPE svg PUBLIC "-//W3C//DTD SVG 1.1//EN" "http://www.w3.org/Graphics/SVG/1.1/DTD/svg11.dtd">
<svg version="1.1" id="Capa_1" xmlns="http://www.w3.org/2000/svg" xmlns:xlink="http://www.w3.org/1999/xlink" x="0px" y="0px"
	 width="640px" height="480px" viewBox="0 0 640 480" enable-background="new 0 0 640 480" xml:space="preserve">
<g>
	<path fill="#DBC56E" d="M320,208c30.88,0,56-25.128,56-56s-25.12-56-56-56s-56,25.128-56,56S289.12,208,320,208z M320,112
		c22.057,0,40,17.943,40,40c0,22.056-17.943,40-40,40c-22.056,0-40-17.944-40-40C280,129.944,297.944,112,320,112z"/>
	<path fill="#DBC56E" d="M318.584,438.056L441.312,260.8c46.032-61.368,39.377-162.24-14.247-215.856
		C398.088,15.96,359.561,0,318.584,0c-40.976,0-79.504,15.96-108.48,44.936c-53.624,53.616-60.28,154.488-14.432,215.616
		L318.584,438.056z M221.416,56.248C247.376,30.296,281.88,16,318.584,16s71.208,14.296,97.168,40.248
		c48.4,48.392,54.36,139.496,12.584,195.191L318.584,409.944L208.656,251.2C167.056,195.744,173.024,104.64,221.416,56.248z"/>
	<path fill="#DBC56E" d="M416.936,344.056c-4.399-0.536-8.367,2.616-8.879,7.008c-0.513,4.392,2.623,8.368,7.008,8.88
		C499.192,369.848,544,396.535,544,412c0,21.712-85.216,52-224,52S96,433.712,96,412c0-15.465,44.808-42.152,128.936-52.057
		c4.384-0.512,7.52-4.496,7.008-8.88c-0.52-4.392-4.488-7.56-8.88-7.008C138.832,353.976,80,381.911,80,412
		c0,33.791,82.44,68,240,68c157.56,0,240-34.209,240-68C560,381.911,501.168,353.976,416.936,344.056z"/>
</g>
</svg>
