<?xml version="1.0" encoding="utf-8"?>
<!-- Generator: Adobe Illustrator 16.0.0, SVG Export Plug-In . SVG Version: 6.00 Build 0)  -->
<!DOCTYPE svg PUBLIC "-//W3C//DTD SVG 1.1//EN" "http://www.w3.org/Graphics/SVG/1.1/DTD/svg11.dtd">
<svg version="1.1" id="Capa_1" xmlns="http://www.w3.org/2000/svg" xmlns:xlink="http://www.w3.org/1999/xlink" x="0px" y="0px"
	 width="640px" height="480px" viewBox="0 0 640 480" enable-background="new 0 0 640 480" xml:space="preserve">
<path fill="#DBC56E" d="M520.112,363.112l-76.424-38.208C436.48,321.296,432,314.048,432,305.984v-27.048
	c1.832-2.24,3.76-4.792,5.752-7.607c9.912-14,17.856-29.584,23.632-46.393C472.672,219.76,480,208.6,480,196v-32
	c0-7.704-2.88-15.168-8-21v-42.553c0.448-4.399,2.208-30.592-16.736-52.199C438.832,29.504,412.168,20,376,20
	s-62.832,9.504-79.264,28.239c-11.48,13.097-15.344,27.849-16.512,38.44C266.512,79.592,250.352,76,232,76
	c-83.112,0-87.952,70.84-88,72v36.632c-5.184,5.647-8,12.168-8,18.64v27.632c0,8.633,3.864,16.681,10.488,22.12
	c6.6,24.88,22.832,43.681,29.152,50.28v21.943c0,6.297-3.424,12.072-9.368,15.32l-53.224,33.384
	C92.664,385.072,80,406.407,80,429.623V460h112h16h352v-32.345C560,400.152,544.712,375.415,520.112,363.112z M192,426.096V444H96
	v-14.377c0-17.359,9.472-33.312,25.128-41.863l53.216-33.384c10.664-5.816,17.288-16.969,17.288-29.129V296.52l-2.544-2.376
	c-0.208-0.191-21.464-20.271-27.744-47.64l-0.728-3.168l-2.736-1.76c-3.68-2.385-5.88-6.376-5.88-10.673v-27.632
	c0-2.88,1.96-6.304,5.368-9.392l2.632-2.376l-0.016-43.04C160.128,146.168,164.296,92,232,92c19.144,0,35.264,4.424,48,13.151V143
	c-5.12,5.832-8,13.296-8,21v32c0,2.432,0.28,4.824,0.808,7.144c0.216,0.928,0.648,1.776,0.944,2.672c0.44,1.345,0.792,2.729,1.408,4
	c0.008,0.017,0.016,0.024,0.024,0.04c2.048,4.225,5.032,8,8.792,11.017c0.04,0.151,0.088,0.288,0.128,0.432
	c0.48,1.832,0.984,3.656,1.528,5.44l0.648,2.088c0.112,0.368,0.248,0.744,0.368,1.111c0.28,0.864,0.552,1.721,0.84,2.568
	c0.48,1.4,0.984,2.848,1.568,4.424c0.248,0.656,0.52,1.248,0.776,1.896c0.656,1.672,1.312,3.288,2,4.888
	c0.168,0.384,0.312,0.8,0.48,1.176l0.448,1.008c0.208,0.465,0.424,0.881,0.632,1.336c0.784,1.713,1.552,3.368,2.352,4.969
	c0.128,0.256,0.248,0.536,0.376,0.792c0.504,1,1.008,1.943,1.512,2.903c0.864,1.648,1.712,3.2,2.56,4.704
	c0.416,0.736,0.824,1.456,1.232,2.152c1.152,1.968,2.248,3.776,3.312,5.456c0.232,0.36,0.456,0.736,0.68,1.08
	c1.936,3,3.616,5.432,5.008,7.328c0.368,0.504,0.688,0.936,1,1.359c0.176,0.232,0.416,0.568,0.568,0.776v26.472
	c0,7.744-4.224,14.848-11.016,18.56l-21.168,11.545l-3.688-0.328l-1.504,3.16l-45.008,24.552
	C206.408,375.392,192,399.663,192,426.096z M544,444H208v-17.904c0-20.568,11.216-39.473,29.272-49.313l71.368-38.928
	c11.944-6.52,19.36-19.024,19.36-32.616v-32.144v-0.008l-1.552-1.856l-0.304-0.359c-0.017-0.024-0.513-0.624-1.32-1.681
	c-0.049-0.063-0.096-0.128-0.152-0.191c-0.424-0.552-0.92-1.216-1.488-2.008c-0.008-0.017-0.016-0.024-0.023-0.04
	c-1.192-1.656-2.688-3.809-4.352-6.4c-0.04-0.056-0.072-0.12-0.112-0.176c-0.784-1.225-1.616-2.561-2.464-3.977
	c-0.064-0.104-0.128-0.208-0.192-0.319c-1.808-3.032-3.728-6.464-5.64-10.265c0,0-0.008-0.008-0.008-0.016
	c-1.016-2.04-2.032-4.184-3.024-6.416l0,0c-0.136-0.313-0.28-0.616-0.416-0.928l0,0c-0.44-1-0.88-2.048-1.328-3.128
	c-0.16-0.393-0.32-0.801-0.48-1.2c-0.416-1.048-0.84-2.104-1.288-3.313c-0.816-2.176-1.584-4.447-2.32-6.792l-0.44-1.424
	c-0.048-0.16-0.104-0.32-0.152-0.488c-0.752-2.527-1.472-5.111-2.08-7.768l-0.728-3.168l-2.728-1.76
	C290.768,206.424,288,201.408,288,196v-32c0-4.488,1.904-8.672,5.36-11.8l2.64-2.376V100v-2.832L295.784,97
	c-0.272-5.776,0.072-23.48,12.984-38.208C322.023,43.664,344.648,36,376,36c31.24,0,53.816,7.607,67.088,22.624
	c15.576,17.607,13,40.136,12.984,40.328L456,149.824l2.64,2.384c3.456,3.12,5.36,7.304,5.36,11.792v32
	c0,6.983-4.576,13.096-11.376,15.191l-3.984,1.225l-1.279,3.96c-5.353,16.647-12.977,32.023-22.672,45.704
	c-2.377,3.368-4.688,6.352-6.696,8.632L416,272.984v33c0,14.16,7.864,26.888,20.528,33.224l76.424,38.209
	C532.104,386.991,544,406.24,544,427.656V444z"/>
</svg>
